<svg width="300.000000pt" height="82.000000pt" viewBox="0 0 300.000000 82.000000" preserveAspectRatio="xMidYMid meet">
    <g transform="translate(0.000000,82.000000) scale(0.100000,-0.100000)"
    fill="#000000" stroke="none">
        <path d="M1043 783 c-35 -8 -63 -19 -63 -24 0 -5 7 -9 15 -9 18 0 18 -24 2
        -95 l-12 -49 -50 2 c-66 3 -102 -20 -139 -88 -40 -73 -42 -156 -6 -195 21 -23
        31 -26 65 -22 26 4 48 15 62 32 20 22 23 23 23 8 0 -48 66 -59 99 -17 20 26
        29 84 13 84 -4 0 -14 -17 -22 -37 -30 -80 -18 1 29 207 27 118 49 215 48 216
        -1 1 -30 -5 -64 -13z m-79 -209 c9 -24 -23 -149 -48 -186 -12 -19 -30 -33 -41
        -33 -17 0 -21 8 -23 47 -2 26 2 65 8 87 20 73 87 129 104 85z"/>
        <path d="M1490 778 c-45 -13 -47 -16 -27 -31 15 -11 13 -28 -29 -212 -25 -110
        -47 -208 -50 -217 -7 -25 14 -22 35 4 l18 21 35 -21 c42 -26 68 -28 108 -7 60
        31 100 111 100 199 0 71 -19 96 -74 96 -23 0 -47 -5 -54 -12 -22 -22 -23 -1
        -2 91 11 50 20 93 20 96 0 8 -41 4 -80 -7z m104 -224 c10 -25 7 -88 -5 -125
        -17 -48 -57 -99 -79 -99 -28 0 -33 31 -15 106 22 97 81 166 99 118z"/>
        <path d="M2375 779 c-43 -10 -70 -29 -42 -29 11 0 17 -8 17 -24 0 -18 -53
        -271 -84 -399 -4 -16 1 -18 36 -15 l41 3 18 78 c27 113 63 177 101 177 23 0
        25 -55 3 -126 -20 -66 -20 -130 1 -138 49 -19 104 18 104 70 0 36 -17 29 -31
        -13 -22 -64 -21 -11 0 75 25 96 26 121 5 150 -18 26 -87 31 -120 8 -21 -15
        -21 -14 2 82 13 53 24 100 24 105 0 9 -24 8 -75 -4z"/>
        <path d="M285 598 c-31 -17 -75 -60 -90 -88 -24 -46 -28 -112 -8 -150 50 -97
        185 -74 248 43 22 40 -5 37 -29 -4 -19 -33 -70 -69 -98 -69 -67 0 -62 171 8
        231 48 42 102 30 83 -17 -15 -41 -11 -54 16 -54 48 0 56 74 12 105 -25 18
        -113 19 -142 3z"/>
        <path d="M552 589 c-98 -63 -117 -230 -30 -275 58 -30 133 -10 185 49 61 70
        71 179 18 224 -36 31 -125 32 -173 2z m119 -21 c16 -31 5 -121 -23 -176 -47
        -94 -98 -87 -98 12 0 123 83 236 121 164z"/>
        <path d="M1205 595 c-104 -52 -146 -206 -75 -270 29 -26 100 -31 145 -9 41 19
        105 106 84 113 -7 2 -16 -5 -22 -15 -22 -39 -75 -84 -100 -84 -34 0 -57 25
        -57 59 0 25 4 29 41 35 115 18 186 109 129 166 -25 25 -101 27 -145 5z"/>
        <path d="M1716 588 c-7 -13 -16 -35 -20 -50 -10 -43 17 -35 34 10 25 69 21 15
        -8 -112 l-29 -126 42 0 41 0 14 68 c31 161 68 233 95 186 25 -42 43 -57 58
        -51 23 9 21 53 -3 77 -25 25 -77 26 -103 3 -18 -17 -19 -17 -28 0 -15 26 -75
        23 -93 -5z"/>
        <path d="M2040 588 c-70 -48 -108 -189 -67 -251 24 -38 93 -38 127 -2 l23 25
        11 -23 c8 -15 22 -23 47 -25 42 -4 58 11 66 62 8 48 -12 47 -28 -1 -24 -74
        -20 -11 7 107 15 66 24 123 21 127 -4 3 -16 -2 -27 -12 -20 -18 -22 -18 -49
        -2 -40 23 -92 21 -131 -5z m114 -24 c16 -40 -43 -204 -78 -217 -55 -21 -43
        150 16 220 15 18 55 16 62 -3z"/>
        <path d="M2671 596 c-45 -25 -66 -94 -38 -128 6 -8 28 -24 47 -34 51 -28 70
        -45 70 -65 0 -35 -68 -52 -104 -26 -15 11 -16 17 -5 40 10 23 10 30 -2 43 -36
        35 -71 -24 -45 -75 32 -61 138 -68 189 -11 20 22 27 41 27 69 0 41 -10 54 -89
        104 -19 12 -36 27 -38 33 -6 18 26 44 53 44 25 0 28 -4 39 -53 4 -22 11 -28
        28 -25 31 4 35 50 8 77 -25 25 -101 28 -140 7z"/>
        <path d="M1714 106 c-13 -35 0 -51 44 -52 38 -2 42 0 42 22 0 13 5 24 10 24 6
        0 10 -11 10 -24 0 -22 4 -23 55 -23 51 0 55 1 55 23 0 21 5 24 33 23 29 0 30
        -1 10 -9 -36 -15 -29 -40 10 -40 32 0 33 1 29 35 -4 35 -5 35 -53 35 -32 0
        -49 -4 -49 -12 0 -10 -2 -10 -8 -1 -10 15 -114 15 -124 0 -6 -9 -8 -9 -8 1 0
        17 -49 15 -56 -2z"/>
    </g>
</svg>
